# xmcd
#
# Track frame offsets: 
#        150
#        11304
#        20033
#        33238
#        44111
#        53140
#        71553
#        84487
#        94031
#        106907
#        118444
#        130027
#
# Disc length: 1838 seconds
#
# Revision: 0
# Processed by: cddbd v1.5.1PL2 Copyright (c) Steve Scherf et al.
# Submitted via: ExactAudioCopy v0.95b3
#
DISCID=9d072c0c
DTITLE=Colonel Jim Garvey - High Noon At The Grand Canyon
DYEAR=2003
DGENRE=Country
TTITLE0=Back In The Saddle
TTITLE1=Red River Valley
TTITLE2=(They Call The Wind) Mariah
TTITLE3=I've Got Spurs
TTITLE4=Detour
TTITLE5=Ghost Riders (In The Sky)
TTITLE6=Wayward Wind
TTITLE7=O.K. Corral
TTITLE8=Rawhide
TTITLE9=High Noon
TTITLE10=Tumblin' Tumbleweeds
TTITLE11=Happy Trails
EXTD=
EXTT0=
EXTT1=
EXTT2=
EXTT3=
EXTT4=
EXTT5=
EXTT6=
EXTT7=
EXTT8=
EXTT9=
EXTT10=
EXTT11=
PLAYORDER=
